<mxfile host="app.diagrams.net" modified="2024-02-08T20:10:02.907Z" agent="Mozilla/5.0 (Windows NT 10.0; Win64; x64) AppleWebKit/537.36 (KHTML, like Gecko) Chrome/121.0.0.0 Safari/537.36" etag="AlmewAUyxNLnB3ztmqS2" version="23.1.2" type="github">
  <diagram name="Page-1" id="A7D3GRE_WMKg31kayhYH">
    <mxGraphModel dx="2391" dy="1169" grid="1" gridSize="10" guides="1" tooltips="1" connect="1" arrows="1" fold="1" page="1" pageScale="1" pageWidth="850" pageHeight="1100" math="0" shadow="0">
      <root>
        <mxCell id="0" />
        <mxCell id="1" parent="0" />
        <mxCell id="kPyFVMleTp3-D7-jRQ-X-13" style="edgeStyle=orthogonalEdgeStyle;rounded=0;orthogonalLoop=1;jettySize=auto;html=1;entryX=0.5;entryY=0;entryDx=0;entryDy=0;" parent="1" source="kPyFVMleTp3-D7-jRQ-X-2" target="kPyFVMleTp3-D7-jRQ-X-3" edge="1">
          <mxGeometry relative="1" as="geometry" />
        </mxCell>
        <mxCell id="kPyFVMleTp3-D7-jRQ-X-2" value="Landing page" style="rounded=1;whiteSpace=wrap;html=1;absoluteArcSize=1;arcSize=14;strokeWidth=2;" parent="1" vertex="1">
          <mxGeometry x="795" y="10" width="100" height="100" as="geometry" />
        </mxCell>
        <mxCell id="kPyFVMleTp3-D7-jRQ-X-3" value="Home page" style="rounded=1;whiteSpace=wrap;html=1;absoluteArcSize=1;arcSize=14;strokeWidth=2;" parent="1" vertex="1">
          <mxGeometry x="795" y="180" width="100" height="100" as="geometry" />
        </mxCell>
        <mxCell id="kPyFVMleTp3-D7-jRQ-X-7" value="Employers" style="rounded=1;whiteSpace=wrap;html=1;absoluteArcSize=1;arcSize=14;strokeWidth=2;" parent="1" vertex="1">
          <mxGeometry x="440" y="180" width="100" height="100" as="geometry" />
        </mxCell>
        <mxCell id="kPyFVMleTp3-D7-jRQ-X-8" value="Inbox" style="rounded=1;whiteSpace=wrap;html=1;absoluteArcSize=1;arcSize=14;strokeWidth=2;" parent="1" vertex="1">
          <mxGeometry x="620" y="180" width="100" height="100" as="geometry" />
        </mxCell>
        <mxCell id="kPyFVMleTp3-D7-jRQ-X-10" value="Jobs" style="rounded=1;whiteSpace=wrap;html=1;absoluteArcSize=1;arcSize=14;strokeWidth=2;" parent="1" vertex="1">
          <mxGeometry x="970" y="180" width="100" height="100" as="geometry" />
        </mxCell>
        <mxCell id="kPyFVMleTp3-D7-jRQ-X-11" value="Events" style="rounded=1;whiteSpace=wrap;html=1;absoluteArcSize=1;arcSize=14;strokeWidth=2;" parent="1" vertex="1">
          <mxGeometry x="1150" y="180" width="100" height="100" as="geometry" />
        </mxCell>
        <mxCell id="kPyFVMleTp3-D7-jRQ-X-33" value="" style="endArrow=classic;startArrow=classic;html=1;rounded=0;exitX=0.5;exitY=1;exitDx=0;exitDy=0;" parent="1" source="kPyFVMleTp3-D7-jRQ-X-8" edge="1">
          <mxGeometry width="50" height="50" relative="1" as="geometry">
            <mxPoint x="490" y="330" as="sourcePoint" />
            <mxPoint x="490" y="280" as="targetPoint" />
            <Array as="points">
              <mxPoint x="670" y="330" />
              <mxPoint x="490" y="330" />
            </Array>
          </mxGeometry>
        </mxCell>
        <mxCell id="kPyFVMleTp3-D7-jRQ-X-34" value="" style="endArrow=classic;startArrow=classic;html=1;rounded=0;exitX=0.5;exitY=1;exitDx=0;exitDy=0;" parent="1" edge="1">
          <mxGeometry width="50" height="50" relative="1" as="geometry">
            <mxPoint x="1200" y="280" as="sourcePoint" />
            <mxPoint x="1020" y="280" as="targetPoint" />
            <Array as="points">
              <mxPoint x="1200" y="330" />
              <mxPoint x="1020" y="330" />
            </Array>
          </mxGeometry>
        </mxCell>
        <mxCell id="kPyFVMleTp3-D7-jRQ-X-37" value="" style="endArrow=classic;startArrow=classic;html=1;rounded=0;exitX=0.5;exitY=1;exitDx=0;exitDy=0;entryX=0.5;entryY=1;entryDx=0;entryDy=0;" parent="1" source="kPyFVMleTp3-D7-jRQ-X-8" target="kPyFVMleTp3-D7-jRQ-X-3" edge="1">
          <mxGeometry width="50" height="50" relative="1" as="geometry">
            <mxPoint x="830" y="240" as="sourcePoint" />
            <mxPoint x="880" y="190" as="targetPoint" />
            <Array as="points">
              <mxPoint x="670" y="330" />
              <mxPoint x="845" y="330" />
            </Array>
          </mxGeometry>
        </mxCell>
        <mxCell id="kPyFVMleTp3-D7-jRQ-X-38" value="" style="endArrow=classic;startArrow=classic;html=1;rounded=0;exitX=0.5;exitY=1;exitDx=0;exitDy=0;entryX=0.5;entryY=1;entryDx=0;entryDy=0;" parent="1" edge="1">
          <mxGeometry width="50" height="50" relative="1" as="geometry">
            <mxPoint x="845" y="280" as="sourcePoint" />
            <mxPoint x="1020" y="280" as="targetPoint" />
            <Array as="points">
              <mxPoint x="845" y="330" />
              <mxPoint x="1020" y="330" />
            </Array>
          </mxGeometry>
        </mxCell>
        <mxCell id="kPyFVMleTp3-D7-jRQ-X-40" value="" style="rounded=1;whiteSpace=wrap;html=1;absoluteArcSize=1;arcSize=14;strokeWidth=2;" parent="1" vertex="1">
          <mxGeometry x="20" y="395" width="390" height="310" as="geometry" />
        </mxCell>
        <mxCell id="kPyFVMleTp3-D7-jRQ-X-43" value="Landing page" style="rounded=1;whiteSpace=wrap;html=1;absoluteArcSize=1;arcSize=14;strokeWidth=2;" parent="1" vertex="1">
          <mxGeometry x="180" y="350" width="70" height="30" as="geometry" />
        </mxCell>
        <mxCell id="kPyFVMleTp3-D7-jRQ-X-44" value="User name&lt;br&gt;Password" style="rounded=1;whiteSpace=wrap;html=1;absoluteArcSize=1;arcSize=14;strokeWidth=2;" parent="1" vertex="1">
          <mxGeometry x="170" y="550" width="80" height="40" as="geometry" />
        </mxCell>
        <mxCell id="kPyFVMleTp3-D7-jRQ-X-45" value="create account" style="rounded=1;whiteSpace=wrap;html=1;absoluteArcSize=1;arcSize=14;strokeWidth=2;" parent="1" vertex="1">
          <mxGeometry x="170" y="590" width="80" height="40" as="geometry" />
        </mxCell>
        <mxCell id="kPyFVMleTp3-D7-jRQ-X-46" value="Welcome to intertwine" style="rounded=1;whiteSpace=wrap;html=1;absoluteArcSize=1;arcSize=14;strokeWidth=2;" parent="1" vertex="1">
          <mxGeometry x="160" y="430" width="100" height="100" as="geometry" />
        </mxCell>
        <mxCell id="kPyFVMleTp3-D7-jRQ-X-47" value="" style="rounded=1;whiteSpace=wrap;html=1;absoluteArcSize=1;arcSize=14;strokeWidth=2;" parent="1" vertex="1">
          <mxGeometry x="870" y="395" width="390" height="310" as="geometry" />
        </mxCell>
        <mxCell id="kPyFVMleTp3-D7-jRQ-X-48" value="Home page" style="rounded=1;whiteSpace=wrap;html=1;absoluteArcSize=1;arcSize=14;strokeWidth=2;" parent="1" vertex="1">
          <mxGeometry x="1030" y="355" width="70" height="30" as="geometry" />
        </mxCell>
        <mxCell id="kPyFVMleTp3-D7-jRQ-X-49" value="Inbox" style="rounded=1;whiteSpace=wrap;html=1;absoluteArcSize=1;arcSize=14;strokeWidth=2;" parent="1" vertex="1">
          <mxGeometry x="870" y="435" width="80" height="40" as="geometry" />
        </mxCell>
        <mxCell id="kPyFVMleTp3-D7-jRQ-X-50" value="Events" style="rounded=1;whiteSpace=wrap;html=1;absoluteArcSize=1;arcSize=14;strokeWidth=2;" parent="1" vertex="1">
          <mxGeometry x="870" y="475" width="80" height="40" as="geometry" />
        </mxCell>
        <mxCell id="kPyFVMleTp3-D7-jRQ-X-52" value="Jobs" style="rounded=1;whiteSpace=wrap;html=1;absoluteArcSize=1;arcSize=14;strokeWidth=2;" parent="1" vertex="1">
          <mxGeometry x="870" y="515" width="80" height="40" as="geometry" />
        </mxCell>
        <mxCell id="kPyFVMleTp3-D7-jRQ-X-53" value="Employers" style="rounded=1;whiteSpace=wrap;html=1;absoluteArcSize=1;arcSize=14;strokeWidth=2;" parent="1" vertex="1">
          <mxGeometry x="870" y="555" width="80" height="40" as="geometry" />
        </mxCell>
        <mxCell id="kPyFVMleTp3-D7-jRQ-X-54" value="Home" style="rounded=1;whiteSpace=wrap;html=1;absoluteArcSize=1;arcSize=14;strokeWidth=2;" parent="1" vertex="1">
          <mxGeometry x="870" y="395" width="80" height="40" as="geometry" />
        </mxCell>
        <mxCell id="kPyFVMleTp3-D7-jRQ-X-55" value="User info" style="rounded=1;whiteSpace=wrap;html=1;absoluteArcSize=1;arcSize=14;strokeWidth=2;" parent="1" vertex="1">
          <mxGeometry x="950" y="395" width="310" height="310" as="geometry" />
        </mxCell>
        <mxCell id="kPyFVMleTp3-D7-jRQ-X-56" value="" style="rounded=1;whiteSpace=wrap;html=1;absoluteArcSize=1;arcSize=14;strokeWidth=2;" parent="1" vertex="1">
          <mxGeometry x="1290" y="395" width="390" height="310" as="geometry" />
        </mxCell>
        <mxCell id="kPyFVMleTp3-D7-jRQ-X-57" value="Inbox" style="rounded=1;whiteSpace=wrap;html=1;absoluteArcSize=1;arcSize=14;strokeWidth=2;" parent="1" vertex="1">
          <mxGeometry x="1460" y="345" width="70" height="30" as="geometry" />
        </mxCell>
        <mxCell id="kPyFVMleTp3-D7-jRQ-X-60" value="Inbox" style="rounded=1;whiteSpace=wrap;html=1;absoluteArcSize=1;arcSize=14;strokeWidth=2;" parent="1" vertex="1">
          <mxGeometry x="1290" y="435" width="80" height="40" as="geometry" />
        </mxCell>
        <mxCell id="kPyFVMleTp3-D7-jRQ-X-61" value="Events" style="rounded=1;whiteSpace=wrap;html=1;absoluteArcSize=1;arcSize=14;strokeWidth=2;" parent="1" vertex="1">
          <mxGeometry x="1290" y="475" width="80" height="40" as="geometry" />
        </mxCell>
        <mxCell id="kPyFVMleTp3-D7-jRQ-X-62" value="Jobs" style="rounded=1;whiteSpace=wrap;html=1;absoluteArcSize=1;arcSize=14;strokeWidth=2;" parent="1" vertex="1">
          <mxGeometry x="1290" y="515" width="80" height="40" as="geometry" />
        </mxCell>
        <mxCell id="kPyFVMleTp3-D7-jRQ-X-63" value="Employers" style="rounded=1;whiteSpace=wrap;html=1;absoluteArcSize=1;arcSize=14;strokeWidth=2;" parent="1" vertex="1">
          <mxGeometry x="1290" y="555" width="80" height="40" as="geometry" />
        </mxCell>
        <mxCell id="kPyFVMleTp3-D7-jRQ-X-64" value="Home" style="rounded=1;whiteSpace=wrap;html=1;absoluteArcSize=1;arcSize=14;strokeWidth=2;" parent="1" vertex="1">
          <mxGeometry x="1290" y="395" width="80" height="40" as="geometry" />
        </mxCell>
        <mxCell id="kPyFVMleTp3-D7-jRQ-X-65" value="List of Conversations/&lt;br&gt;/ Emails" style="rounded=1;whiteSpace=wrap;html=1;absoluteArcSize=1;arcSize=14;strokeWidth=2;" parent="1" vertex="1">
          <mxGeometry x="1370" y="435" width="80" height="270" as="geometry" />
        </mxCell>
        <mxCell id="kPyFVMleTp3-D7-jRQ-X-66" value="Current Conversation" style="text;html=1;strokeColor=none;fillColor=none;align=center;verticalAlign=middle;whiteSpace=wrap;rounded=0;" parent="1" vertex="1">
          <mxGeometry x="1540" y="535" width="50" height="30" as="geometry" />
        </mxCell>
        <mxCell id="kPyFVMleTp3-D7-jRQ-X-67" value="" style="rounded=1;whiteSpace=wrap;html=1;absoluteArcSize=1;arcSize=14;strokeWidth=2;" parent="1" vertex="1">
          <mxGeometry x="870" y="770" width="390" height="310" as="geometry" />
        </mxCell>
        <mxCell id="kPyFVMleTp3-D7-jRQ-X-68" value="Employers" style="rounded=1;whiteSpace=wrap;html=1;absoluteArcSize=1;arcSize=14;strokeWidth=2;" parent="1" vertex="1">
          <mxGeometry x="1030" y="730" width="70" height="30" as="geometry" />
        </mxCell>
        <mxCell id="kPyFVMleTp3-D7-jRQ-X-69" value="Inbox" style="rounded=1;whiteSpace=wrap;html=1;absoluteArcSize=1;arcSize=14;strokeWidth=2;" parent="1" vertex="1">
          <mxGeometry x="870" y="810" width="80" height="40" as="geometry" />
        </mxCell>
        <mxCell id="kPyFVMleTp3-D7-jRQ-X-70" value="Events" style="rounded=1;whiteSpace=wrap;html=1;absoluteArcSize=1;arcSize=14;strokeWidth=2;" parent="1" vertex="1">
          <mxGeometry x="870" y="850" width="80" height="40" as="geometry" />
        </mxCell>
        <mxCell id="kPyFVMleTp3-D7-jRQ-X-71" value="Jobs" style="rounded=1;whiteSpace=wrap;html=1;absoluteArcSize=1;arcSize=14;strokeWidth=2;" parent="1" vertex="1">
          <mxGeometry x="870" y="890" width="80" height="40" as="geometry" />
        </mxCell>
        <mxCell id="kPyFVMleTp3-D7-jRQ-X-72" value="Employers" style="rounded=1;whiteSpace=wrap;html=1;absoluteArcSize=1;arcSize=14;strokeWidth=2;" parent="1" vertex="1">
          <mxGeometry x="870" y="930" width="80" height="40" as="geometry" />
        </mxCell>
        <mxCell id="kPyFVMleTp3-D7-jRQ-X-73" value="Home" style="rounded=1;whiteSpace=wrap;html=1;absoluteArcSize=1;arcSize=14;strokeWidth=2;" parent="1" vertex="1">
          <mxGeometry x="870" y="770" width="80" height="40" as="geometry" />
        </mxCell>
        <mxCell id="kPyFVMleTp3-D7-jRQ-X-76" value="Search Filter" style="rounded=1;whiteSpace=wrap;html=1;absoluteArcSize=1;arcSize=14;strokeWidth=2;" parent="1" vertex="1">
          <mxGeometry x="950" y="770" width="90" height="310" as="geometry" />
        </mxCell>
        <mxCell id="kPyFVMleTp3-D7-jRQ-X-77" value="Search Results" style="text;html=1;strokeColor=none;fillColor=none;align=center;verticalAlign=middle;whiteSpace=wrap;rounded=0;" parent="1" vertex="1">
          <mxGeometry x="1120" y="910" width="60" height="30" as="geometry" />
        </mxCell>
        <mxCell id="kPyFVMleTp3-D7-jRQ-X-78" value="Account Creation" style="rounded=1;whiteSpace=wrap;html=1;absoluteArcSize=1;arcSize=14;strokeWidth=2;" parent="1" vertex="1">
          <mxGeometry x="970" y="10" width="100" height="100" as="geometry" />
        </mxCell>
        <mxCell id="kPyFVMleTp3-D7-jRQ-X-79" value="" style="endArrow=classic;startArrow=classic;html=1;rounded=0;entryX=-0.01;entryY=0.58;entryDx=0;entryDy=0;entryPerimeter=0;exitX=1;exitY=0.58;exitDx=0;exitDy=0;exitPerimeter=0;" parent="1" source="kPyFVMleTp3-D7-jRQ-X-2" target="kPyFVMleTp3-D7-jRQ-X-78" edge="1">
          <mxGeometry width="50" height="50" relative="1" as="geometry">
            <mxPoint x="900" y="85" as="sourcePoint" />
            <mxPoint x="950" y="35" as="targetPoint" />
          </mxGeometry>
        </mxCell>
        <mxCell id="kPyFVMleTp3-D7-jRQ-X-80" value="" style="rounded=1;whiteSpace=wrap;html=1;absoluteArcSize=1;arcSize=14;strokeWidth=2;" parent="1" vertex="1">
          <mxGeometry x="440" y="395" width="390" height="310" as="geometry" />
        </mxCell>
        <mxCell id="kPyFVMleTp3-D7-jRQ-X-81" value="Account Creation" style="rounded=1;whiteSpace=wrap;html=1;absoluteArcSize=1;arcSize=14;strokeWidth=2;" parent="1" vertex="1">
          <mxGeometry x="600" y="350" width="70" height="30" as="geometry" />
        </mxCell>
        <mxCell id="kPyFVMleTp3-D7-jRQ-X-82" value="Email" style="rounded=1;whiteSpace=wrap;html=1;absoluteArcSize=1;arcSize=14;strokeWidth=2;" parent="1" vertex="1">
          <mxGeometry x="595" y="450" width="80" height="20" as="geometry" />
        </mxCell>
        <mxCell id="kPyFVMleTp3-D7-jRQ-X-85" value="Password" style="rounded=1;whiteSpace=wrap;html=1;absoluteArcSize=1;arcSize=14;strokeWidth=2;" parent="1" vertex="1">
          <mxGeometry x="595" y="480" width="80" height="20" as="geometry" />
        </mxCell>
        <mxCell id="kPyFVMleTp3-D7-jRQ-X-86" value="Verify password" style="rounded=1;whiteSpace=wrap;html=1;absoluteArcSize=1;arcSize=14;strokeWidth=2;" parent="1" vertex="1">
          <mxGeometry x="595" y="520" width="80" height="30" as="geometry" />
        </mxCell>
        <mxCell id="ma0cwVclpwPbbtHwFEp9-1" value="" style="rounded=1;whiteSpace=wrap;html=1;absoluteArcSize=1;arcSize=14;strokeWidth=2;" vertex="1" parent="1">
          <mxGeometry x="440" y="770" width="390" height="310" as="geometry" />
        </mxCell>
        <mxCell id="ma0cwVclpwPbbtHwFEp9-2" value="Jobs" style="rounded=1;whiteSpace=wrap;html=1;absoluteArcSize=1;arcSize=14;strokeWidth=2;" vertex="1" parent="1">
          <mxGeometry x="600" y="730" width="70" height="30" as="geometry" />
        </mxCell>
        <mxCell id="ma0cwVclpwPbbtHwFEp9-3" value="Job List" style="rounded=1;whiteSpace=wrap;html=1;absoluteArcSize=1;arcSize=14;strokeWidth=2;" vertex="1" parent="1">
          <mxGeometry x="550" y="770" width="250" height="60" as="geometry" />
        </mxCell>
        <mxCell id="ma0cwVclpwPbbtHwFEp9-4" value="Selected Job Details" style="rounded=1;whiteSpace=wrap;html=1;absoluteArcSize=1;arcSize=14;strokeWidth=2;" vertex="1" parent="1">
          <mxGeometry x="610" y="830" width="220" height="250" as="geometry" />
        </mxCell>
        <mxCell id="ma0cwVclpwPbbtHwFEp9-5" value="&amp;lt;" style="rounded=1;whiteSpace=wrap;html=1;absoluteArcSize=1;arcSize=14;strokeWidth=2;" vertex="1" parent="1">
          <mxGeometry x="520" y="770" width="30" height="60" as="geometry" />
        </mxCell>
        <mxCell id="ma0cwVclpwPbbtHwFEp9-6" value="Inbox" style="rounded=1;whiteSpace=wrap;html=1;absoluteArcSize=1;arcSize=14;strokeWidth=2;" vertex="1" parent="1">
          <mxGeometry x="440" y="810" width="80" height="40" as="geometry" />
        </mxCell>
        <mxCell id="ma0cwVclpwPbbtHwFEp9-7" value="Events" style="rounded=1;whiteSpace=wrap;html=1;absoluteArcSize=1;arcSize=14;strokeWidth=2;" vertex="1" parent="1">
          <mxGeometry x="440" y="850" width="80" height="40" as="geometry" />
        </mxCell>
        <mxCell id="ma0cwVclpwPbbtHwFEp9-8" value="Jobs" style="rounded=1;whiteSpace=wrap;html=1;absoluteArcSize=1;arcSize=14;strokeWidth=2;" vertex="1" parent="1">
          <mxGeometry x="440" y="890" width="80" height="40" as="geometry" />
        </mxCell>
        <mxCell id="ma0cwVclpwPbbtHwFEp9-9" value="Employers" style="rounded=1;whiteSpace=wrap;html=1;absoluteArcSize=1;arcSize=14;strokeWidth=2;" vertex="1" parent="1">
          <mxGeometry x="440" y="930" width="80" height="40" as="geometry" />
        </mxCell>
        <mxCell id="ma0cwVclpwPbbtHwFEp9-10" value="Home" style="rounded=1;whiteSpace=wrap;html=1;absoluteArcSize=1;arcSize=14;strokeWidth=2;" vertex="1" parent="1">
          <mxGeometry x="440" y="770" width="80" height="40" as="geometry" />
        </mxCell>
        <mxCell id="ma0cwVclpwPbbtHwFEp9-11" value="&amp;gt;" style="rounded=1;whiteSpace=wrap;html=1;absoluteArcSize=1;arcSize=14;strokeWidth=2;" vertex="1" parent="1">
          <mxGeometry x="800" y="770" width="30" height="60" as="geometry" />
        </mxCell>
        <mxCell id="ma0cwVclpwPbbtHwFEp9-13" value="Search Filter" style="rounded=1;whiteSpace=wrap;html=1;absoluteArcSize=1;arcSize=14;strokeWidth=2;" vertex="1" parent="1">
          <mxGeometry x="520" y="830" width="90" height="250" as="geometry" />
        </mxCell>
        <mxCell id="ma0cwVclpwPbbtHwFEp9-15" value="" style="rounded=1;whiteSpace=wrap;html=1;absoluteArcSize=1;arcSize=14;strokeWidth=2;" vertex="1" parent="1">
          <mxGeometry x="20" y="770" width="390" height="310" as="geometry" />
        </mxCell>
        <mxCell id="ma0cwVclpwPbbtHwFEp9-16" value="Events" style="rounded=1;whiteSpace=wrap;html=1;absoluteArcSize=1;arcSize=14;strokeWidth=2;" vertex="1" parent="1">
          <mxGeometry x="180" y="730" width="70" height="30" as="geometry" />
        </mxCell>
        <mxCell id="ma0cwVclpwPbbtHwFEp9-17" value="Event List" style="rounded=1;whiteSpace=wrap;html=1;absoluteArcSize=1;arcSize=14;strokeWidth=2;" vertex="1" parent="1">
          <mxGeometry x="130" y="770" width="250" height="60" as="geometry" />
        </mxCell>
        <mxCell id="ma0cwVclpwPbbtHwFEp9-18" value="Selected Event Details" style="rounded=1;whiteSpace=wrap;html=1;absoluteArcSize=1;arcSize=14;strokeWidth=2;" vertex="1" parent="1">
          <mxGeometry x="190" y="830" width="220" height="250" as="geometry" />
        </mxCell>
        <mxCell id="ma0cwVclpwPbbtHwFEp9-19" value="&amp;lt;" style="rounded=1;whiteSpace=wrap;html=1;absoluteArcSize=1;arcSize=14;strokeWidth=2;" vertex="1" parent="1">
          <mxGeometry x="100" y="770" width="30" height="60" as="geometry" />
        </mxCell>
        <mxCell id="ma0cwVclpwPbbtHwFEp9-20" value="Inbox" style="rounded=1;whiteSpace=wrap;html=1;absoluteArcSize=1;arcSize=14;strokeWidth=2;" vertex="1" parent="1">
          <mxGeometry x="20" y="810" width="80" height="40" as="geometry" />
        </mxCell>
        <mxCell id="ma0cwVclpwPbbtHwFEp9-21" value="Events" style="rounded=1;whiteSpace=wrap;html=1;absoluteArcSize=1;arcSize=14;strokeWidth=2;" vertex="1" parent="1">
          <mxGeometry x="20" y="850" width="80" height="40" as="geometry" />
        </mxCell>
        <mxCell id="ma0cwVclpwPbbtHwFEp9-22" value="Jobs" style="rounded=1;whiteSpace=wrap;html=1;absoluteArcSize=1;arcSize=14;strokeWidth=2;" vertex="1" parent="1">
          <mxGeometry x="20" y="890" width="80" height="40" as="geometry" />
        </mxCell>
        <mxCell id="ma0cwVclpwPbbtHwFEp9-23" value="Employers" style="rounded=1;whiteSpace=wrap;html=1;absoluteArcSize=1;arcSize=14;strokeWidth=2;" vertex="1" parent="1">
          <mxGeometry x="20" y="930" width="80" height="40" as="geometry" />
        </mxCell>
        <mxCell id="ma0cwVclpwPbbtHwFEp9-24" value="Home" style="rounded=1;whiteSpace=wrap;html=1;absoluteArcSize=1;arcSize=14;strokeWidth=2;" vertex="1" parent="1">
          <mxGeometry x="20" y="770" width="80" height="40" as="geometry" />
        </mxCell>
        <mxCell id="ma0cwVclpwPbbtHwFEp9-25" value="&amp;gt;" style="rounded=1;whiteSpace=wrap;html=1;absoluteArcSize=1;arcSize=14;strokeWidth=2;" vertex="1" parent="1">
          <mxGeometry x="380" y="770" width="30" height="60" as="geometry" />
        </mxCell>
        <mxCell id="ma0cwVclpwPbbtHwFEp9-26" value="Search Filter" style="rounded=1;whiteSpace=wrap;html=1;absoluteArcSize=1;arcSize=14;strokeWidth=2;" vertex="1" parent="1">
          <mxGeometry x="100" y="830" width="90" height="250" as="geometry" />
        </mxCell>
        <mxCell id="ma0cwVclpwPbbtHwFEp9-27" value="Create account" style="rounded=1;whiteSpace=wrap;html=1;absoluteArcSize=1;arcSize=14;strokeWidth=2;" vertex="1" parent="1">
          <mxGeometry x="595" y="570" width="80" height="30" as="geometry" />
        </mxCell>
        <mxCell id="ma0cwVclpwPbbtHwFEp9-28" value="Send Email" style="rounded=1;whiteSpace=wrap;html=1;absoluteArcSize=1;arcSize=14;strokeWidth=2;" vertex="1" parent="1">
          <mxGeometry x="1370" y="395" width="80" height="40" as="geometry" />
        </mxCell>
      </root>
    </mxGraphModel>
  </diagram>
</mxfile>
